<?xml version="1.0" standalone="no"?>
<!DOCTYPE svg PUBLIC "-//W3C//DTD SVG 20010904//EN"
 "http://www.w3.org/TR/2001/REC-SVG-20010904/DTD/svg10.dtd">
<svg version="1.0" xmlns="http://www.w3.org/2000/svg"
 width="192.000000pt" height="192.000000pt" viewBox="0 0 192.000000 192.000000"
 preserveAspectRatio="xMidYMid meet">
<metadata>
Created by potrace 1.14, written by Peter Selinger 2001-2017
</metadata>
<g transform="translate(0.000000,192.000000) scale(0.100000,-0.100000)"
fill="#000000" stroke="none">
<path d="M595 1888 c-27 -5 -57 -11 -65 -15 -8 -3 -21 -7 -28 -9 -8 -1 -32
-15 -55 -30 -124 -80 -185 -216 -185 -409 -1 -126 12 -186 88 -409 33 -99 63
-196 66 -215 3 -20 8 -45 11 -56 4 -11 7 -72 9 -135 2 -105 10 -232 18 -270
45 -245 136 -347 235 -265 28 24 67 107 77 165 3 14 9 50 14 80 6 31 12 78 15
105 2 28 7 61 9 75 3 14 7 43 11 65 9 64 35 156 48 171 52 63 97 72 141 27 43
-43 63 -136 91 -423 5 -51 8 -72 20 -125 35 -165 123 -218 213 -128 12 11 63
114 69 138 1 6 9 37 17 70 20 83 24 116 31 230 13 224 25 279 110 505 25 69
47 130 49 135 1 6 4 15 8 20 3 6 9 26 14 45 25 111 29 262 10 345 -37 156
-109 242 -248 293 -76 28 -224 26 -313 -6 -55 -20 -129 -28 -165 -20 -8 2 -44
14 -80 26 -74 25 -161 32 -235 20z"/>
</g>
</svg>
