<?xml version="1.0" standalone="no"?>
<!DOCTYPE svg PUBLIC "-//W3C//DTD SVG 20010904//EN"
 "http://www.w3.org/TR/2001/REC-SVG-20010904/DTD/svg10.dtd">
<svg version="1.0" xmlns="http://www.w3.org/2000/svg"
 width="541.000000pt" height="541.000000pt" viewBox="0 0 541.000000 541.000000"
 preserveAspectRatio="xMidYMid meet">
<metadata>
Created by potrace 1.14, written by Peter Selinger 2001-2017
</metadata>
<g transform="translate(0.000000,541.000000) scale(0.100000,-0.100000)"
fill="#000000" stroke="none">
<path d="M1715 5329 c-79 -11 -249 -55 -285 -74 -16 -8 -34 -15 -39 -15 -22 0
-186 -102 -245 -152 -182 -155 -305 -365 -364 -623 -27 -115 -31 -136 -40
-215 -15 -132 -6 -535 13 -592 2 -7 6 -31 9 -53 6 -47 13 -79 21 -105 3 -10 7
-27 9 -37 12 -61 78 -266 215 -663 60 -175 127 -390 135 -432 2 -13 11 -50 19
-83 15 -57 41 -191 52 -265 10 -65 15 -204 20 -470 2 -146 6 -281 9 -300 2
-19 7 -64 11 -100 41 -411 160 -767 309 -929 76 -82 164 -107 269 -77 106 31
203 147 262 312 49 138 88 318 120 554 3 25 8 56 10 70 11 81 15 110 20 155 3
28 8 64 10 80 3 17 7 48 10 70 14 124 37 259 64 385 54 244 127 380 236 438
41 22 149 22 196 0 131 -63 226 -315 264 -703 3 -33 8 -71 10 -85 2 -14 7 -54
10 -90 3 -36 8 -81 10 -100 2 -19 6 -64 10 -100 29 -296 61 -493 106 -645 70
-237 194 -365 353 -365 174 0 338 237 446 645 16 61 32 124 34 140 3 17 10 55
16 85 14 71 27 168 35 250 4 36 8 76 11 90 2 13 6 96 9 185 9 247 14 368 19
391 2 12 7 45 11 75 3 30 15 91 25 136 11 46 22 94 24 109 3 14 10 40 16 58 6
18 12 42 14 52 9 46 111 339 196 564 180 477 227 640 257 891 10 85 10 427 0
509 -43 351 -195 641 -427 813 -125 94 -277 159 -448 193 -42 9 -140 18 -217
20 -204 6 -366 -21 -533 -87 -109 -43 -195 -61 -297 -61 -113 -1 -184 14 -307
63 -98 39 -217 73 -298 84 -71 11 -329 13 -395 4z"/>
</g>
</svg>
