<svg version="1.1" id="Layer_1" xmlns="http://www.w3.org/2000/svg" x="0" y="0" viewBox="0 0 97 24" style="enable-background:new 0 0 97 24" xml:space="preserve"><style>.st0{fill:#087ab6}.st2{fill:#fff}.st3{fill:#03acb3}</style><g id="Smile"><path class="st0" d="M51.1 9.1c0-2.8-2.2-4.1-4.5-4.1-1.5 0-2.8.5-3.7 1.4-1.3 1.1-1.9 2.7-1.9 4.3 0 3 2.4 4.3 5.3 4.3.8 0 1.7-.1 2.4-.3.5-.1.9-.5 1-1.1l.4-2.1c-1 .4-2.3.7-3.2.7-1.2 0-1.9-.4-2.1-1.4h6.1c.1-.5.2-1.2.2-1.7zM45 8.9c.3-.6.7-1.2 1.4-1.2.6 0 1.1.4 1.2 1.2H45zM.8 9.7c1.2 1 3.1 1.9 4.5 1.9.4 0 .7-.1.9-.3.2-.1.3-.3.3-.7 0-.8-.9-1-2.5-1.8-1.6-.7-2.8-1.6-2.8-3.5 0-1.4.6-2.7 1.8-3.5C4 1 5.3.6 6.7.6c1.1 0 2.4.3 3.5.7.6.3.9.9.8 1.5l-.5 2.6c-1.2-.8-2.9-1.5-4-1.5-.4 0-.7 0-.9.1-.2.2-.3.5-.3.7 0 .7.7.9 2.2 1.7 1.8.9 3 1.9 3 3.9 0 1.4-.6 2.6-1.6 3.4-1 .8-2.4 1.3-4 1.3-1.3 0-2.7-.3-3.9-.9-.5-.3-.8-.8-.7-1.4l.5-3zM13 5.2h3.8l-.2.8c.6-.5 1.4-1 2.5-1s2 .5 2.6 1.4c.8-.7 2-1.4 3.3-1.4 1.8 0 3.1 1.3 3.1 3.1 0 .3 0 .7-.1 1l-1 5.7h-2.3c-.8 0-1.5-.8-1.3-1.6l.7-3.8V9c0-.6-.4-.8-.9-.8-.4 0-.8.2-1.2.5 0 .1 0 .3-.1.5l-1 5.7h-2.2c-.8 0-1.5-.7-1.3-1.6l.7-3.8v-.4c0-.6-.4-.8-.9-.8-.4 0-.8.2-1.1.4L15 14.9h-3.8L13 5.2zM33.3.1c1.1 0 1.9.9 1.9 1.9 0 1.2-1 2.1-2.1 2.1s-1.9-.9-1.9-1.9c0-1.2.9-2.1 2.1-2.1zM30.7 5.2h3.8l-1.7 9.5h-2.2c-.8 0-1.5-.8-1.3-1.6l1.4-7.9zM37.5.5h3.8l-2.5 14.3h-2.2c-.8 0-1.5-.8-1.3-1.6L37.5.5z"/></g><path d="M93.6 14.8H53.7c-.9 0-1.6-.9-1.5-1.9l1.6-11.1c.1-.8.7-1.4 1.5-1.4h39.9c.9 0 1.6.9 1.5 1.9l-1.6 11.1c-.1.8-.7 1.4-1.5 1.4z" style="fill:#0ea888"/><g id="Inspire"><path class="st2" d="M76.1 5.3c-.4 0-.9.1-1.2.4l.1-.3h-2.1l-1.4 7.7h2.2l.4-2.2c.3.1.6.1 1 .1 1 0 1.7-.4 2.2-.9.6-.6.9-1.5.9-2.4 0-1.4-.9-2.4-2.1-2.4zm-.4 3.6c-.1.2-.4.4-.8.4-.2 0-.5-.1-.6-.2l.3-2c.2 0 .4-.1.6-.1.5 0 .8.4.8 1 0 .3-.1.6-.3.9zM81.1 2.5c.6 0 1.1.5 1.1 1.1 0 .7-.6 1.2-1.2 1.2s-1.1-.5-1.1-1.1c-.1-.7.5-1.2 1.2-1.2zM79.6 5.4h2.2l-1 5.4h-2.2l1-5.4zM82 10.9l1-5.4h2.1L85 6c.4-.4.8-.7 1.4-.7.2 0 .4 0 .6.1l-.4 2c-.2-.1-.4-.1-.6-.1-.5 0-1 .2-1.3.5l-.5 3.1H82zM92.8 7.6c0-1.6-1.3-2.3-2.6-2.3-.8 0-1.6.3-2.1.8-.7.6-1.1 1.6-1.1 2.4 0 1.7 1.4 2.5 3 2.5.6 0 1.4-.1 1.9-.3l.3-1.7c-.6.2-1.3.4-1.8.4-.7 0-1.1-.2-1.2-.8h3.5c.1-.3.1-.7.1-1zm-3.5-.1c.2-.4.4-.7.8-.7s.7.2.7.7h-1.5zM57.3 2.9h2.3l-1.4 8h-2.3l1.4-8zM62.4 5.9c.5-.4 1-.5 1.5-.5 1.1-.1 1.7.6 1.7 1.6 0 .2 0 .4-.1.6l-.5 3.3h-2.2l.5-3.1v-.2c0-.3-.2-.5-.5-.5-.2 0-.5.1-.7.3l-.6 3.5h-2.2l1-5.4h2.1v.4zM66.5 8.6c.8.5 1.7.8 2.3.8.2 0 .3-.1.3-.2 0-.3-.5-.2-1.2-.5-.8-.3-1.2-.8-1.2-1.4 0-.6.3-1.1.8-1.5.5-.3 1.1-.5 1.8-.5s1.5.2 2.3.5l-.3 1.7c-.7-.5-1.6-.6-2-.6-.2 0-.3.1-.3.2 0 .2.4.2 1.1.5.8.3 1.3.7 1.3 1.4 0 .5-.3 1.1-.7 1.4-.5.4-1.1.6-1.8.6-.8 0-1.7-.2-2.5-.6l.1-1.8z"/></g><g id="Mouth"><path class="st3" d="M36.6 16c-.1 0-1.3.1-1.9-1.1-.2-.3-.5-.4-.8-.2-.3.2-.4.5-.2.8.1.2.3.4.4.6-1.9.9-3.7 1.7-5.5 2.3-2 .7-4 1.1-6.1 1.2-2 .1-4.1-.1-6.1-.7-2-.5-4.1-1.4-6.1-2.4h-.1c-.2-.1-.4-.1-.6 0-.3.2-.4.6-.2.8.7 1.1 1.5 2 2.5 2.8 1 .8 2 1.5 3.2 2.1 2.3 1.1 5 1.7 7.6 1.6 2.6-.1 5.2-.9 7.4-2.2 2.1-1.2 3.9-2.8 5.3-4.7.4.2.9.2 1.1.2h.3c.3 0 .6-.3.5-.7-.1-.2-.4-.4-.7-.4zM7.8 17.8h-.1c-.3-.1-.5-.4-.5-.7 0-.1.4-2.1 2.6-2.4.3-.1.6.2.7.5.1.3-.2.6-.5.7-1.3.2-1.6 1.5-1.6 1.5 0 .2-.3.4-.6.4z"/><path class="st2" d="M15.5 20.3c1.1.4 2.2.6 3.3.8 1.1.2 2.3.3 3.4.2 1.1 0 2.3-.2 3.4-.4s2.2-.6 3.3-1c.1 0 .2 0 .3.1 0 .1 0 .2-.1.3-.3.2-.5.3-.8.5-.3.1-.5.3-.8.4-.6.2-1.1.5-1.7.6-1.2.4-2.4.5-3.6.6-1.2 0-2.4-.1-3.6-.4-1.2-.3-2.3-.7-3.4-1.4-.1-.1-.1-.2-.1-.3h.4z"/></g></svg>