<?xml version="1.0" encoding="utf-8"?>
<!-- Generator: Adobe Illustrator 19.2.1, SVG Export Plug-In . SVG Version: 6.00 Build 0)  -->
<svg version="1.1" id="Layer_1" xmlns="http://www.w3.org/2000/svg" xmlns:xlink="http://www.w3.org/1999/xlink" x="0px" y="0px"
	 viewBox="0 0 97 24" style="enable-background:new 0 0 97 24;" xml:space="preserve">
<style type="text/css">
	.st0{fill:#FFFFFF;}
	.st1{fill:#0EA888;}
	.st2{fill:#03ACB3;}
</style>
<g>
	<g id="Smile">
		<path class="st0" d="M51.1,9.1c0-2.8-2.2-4.1-4.5-4.1c-1.5,0-2.8,0.5-3.7,1.4C41.6,7.5,41,9.1,41,10.7c0,3,2.4,4.3,5.3,4.3
			c0.8,0,1.7-0.1,2.4-0.3c0.5-0.1,0.9-0.5,1-1.1l0.4-2.1c-1,0.4-2.3,0.7-3.2,0.7c-1.2,0-1.9-0.4-2.1-1.4h6.1
			C51,10.3,51.1,9.6,51.1,9.1z M45,8.9c0.3-0.6,0.7-1.2,1.4-1.2c0.6,0,1.1,0.4,1.2,1.2H45z"/>
		<path class="st0" d="M0.8,9.7c1.2,1,3.1,1.9,4.5,1.9c0.4,0,0.7-0.1,0.9-0.3c0.2-0.1,0.3-0.3,0.3-0.7c0-0.8-0.9-1-2.5-1.8
			C2.4,8.1,1.2,7.2,1.2,5.3c0-1.4,0.6-2.7,1.8-3.5C4,1,5.3,0.6,6.7,0.6c1.1,0,2.4,0.3,3.5,0.7c0.6,0.3,0.9,0.9,0.8,1.5l-0.5,2.6
			c-1.2-0.8-2.9-1.5-4-1.5c-0.4,0-0.7,0-0.9,0.1C5.4,4.2,5.3,4.5,5.3,4.7c0,0.7,0.7,0.9,2.2,1.7c1.8,0.9,3,1.9,3,3.9
			c0,1.4-0.6,2.6-1.6,3.4c-1,0.8-2.4,1.3-4,1.3c-1.3,0-2.7-0.3-3.9-0.9c-0.5-0.3-0.8-0.8-0.7-1.4L0.8,9.7z"/>
		<path class="st0" d="M13,5.2h3.8L16.6,6l0,0c0.6-0.5,1.4-1,2.5-1s2,0.5,2.6,1.4C22.5,5.7,23.7,5,25,5c1.8,0,3.1,1.3,3.1,3.1
			c0,0.3,0,0.7-0.1,1l-1,5.7h-2.3c-0.8,0-1.5-0.8-1.3-1.6l0.7-3.8c0-0.1,0-0.3,0-0.4c0-0.6-0.4-0.8-0.9-0.8c-0.4,0-0.8,0.2-1.2,0.5
			c0,0.1,0,0.3-0.1,0.5l-1,5.7h-2.2c-0.8,0-1.5-0.7-1.3-1.6l0.7-3.8c0-0.1,0-0.2,0-0.4c0-0.6-0.4-0.8-0.9-0.8
			c-0.4,0-0.8,0.2-1.1,0.4L15,14.9h-3.8L13,5.2z"/>
		<path class="st0" d="M33.3,0.1c1.1,0,1.9,0.9,1.9,1.9c0,1.2-1,2.1-2.1,2.1s-1.9-0.9-1.9-1.9C31.2,1,32.1,0.1,33.3,0.1z"/>
		<path class="st0" d="M30.7,5.2h3.8l-1.7,9.5h-2.2c-0.8,0-1.5-0.8-1.3-1.6L30.7,5.2z"/>
		<path class="st0" d="M37.5,0.5h3.8l-2.5,14.3h-2.2c-0.8,0-1.5-0.8-1.3-1.6L37.5,0.5z"/>
	</g>
	<path class="st1" d="M93.6,14.8H53.7c-0.9,0-1.6-0.9-1.5-1.9l1.6-11.1c0.1-0.8,0.7-1.4,1.5-1.4h39.9c0.9,0,1.6,0.9,1.5,1.9
		l-1.6,11.1C95,14.2,94.4,14.8,93.6,14.8z"/>
	<g id="Inspire">
		<path class="st0" d="M76.1,5.3c-0.4,0-0.9,0.1-1.2,0.4l0,0L75,5.4h-2.1l-1.4,7.7h2.2l0.4-2.2l0,0c0.3,0.1,0.6,0.1,1,0.1
			c1,0,1.7-0.4,2.2-0.9c0.6-0.6,0.9-1.5,0.9-2.4C78.2,6.3,77.3,5.3,76.1,5.3z M75.7,8.9c-0.1,0.2-0.4,0.4-0.8,0.4
			c-0.2,0-0.5-0.1-0.6-0.2l0.3-2C74.8,7.1,75,7,75.2,7C75.7,7,76,7.4,76,8C76,8.3,75.9,8.6,75.7,8.9z"/>
		<path class="st0" d="M81.1,2.5c0.6,0,1.1,0.5,1.1,1.1c0,0.7-0.6,1.2-1.2,1.2s-1.1-0.5-1.1-1.1C79.8,3,80.4,2.5,81.1,2.5z"/>
		<path class="st0" d="M79.6,5.4h2.2l-1,5.4h-2.2L79.6,5.4z"/>
		<path class="st0" d="M82,10.9l1-5.4h2.1L85,6l0,0c0.4-0.4,0.8-0.7,1.4-0.7c0.2,0,0.4,0,0.6,0.1l-0.4,2c-0.2-0.1-0.4-0.1-0.6-0.1
			c-0.5,0-1,0.2-1.3,0.5l-0.5,3.1H82z"/>
		<path class="st0" d="M92.8,7.6c0-1.6-1.3-2.3-2.6-2.3c-0.8,0-1.6,0.3-2.1,0.8C87.4,6.7,87,7.7,87,8.5c0,1.7,1.4,2.5,3,2.5
			c0.6,0,1.4-0.1,1.9-0.3L92.2,9c-0.6,0.2-1.3,0.4-1.8,0.4c-0.7,0-1.1-0.2-1.2-0.8h3.5C92.8,8.3,92.8,7.9,92.8,7.6z M89.3,7.5
			c0.2-0.4,0.4-0.7,0.8-0.7s0.7,0.2,0.7,0.7H89.3z"/>
		<path class="st0" d="M57.3,2.9h2.3l-1.4,8h-2.3L57.3,2.9z"/>
		<path class="st0" d="M62.4,5.9c0.5-0.4,1-0.5,1.5-0.5C65,5.3,65.6,6,65.6,7c0,0.2,0,0.4-0.1,0.6L65,10.9h-2.2l0.5-3.1
			c0-0.1,0-0.1,0-0.2c0-0.3-0.2-0.5-0.5-0.5c-0.2,0-0.5,0.1-0.7,0.3l-0.6,3.5h-2.2l1-5.4h2.1L62.4,5.9L62.4,5.9z"/>
		<path class="st0" d="M66.5,8.6c0.8,0.5,1.7,0.8,2.3,0.8c0.2,0,0.3-0.1,0.3-0.2c0-0.3-0.5-0.2-1.2-0.5c-0.8-0.3-1.2-0.8-1.2-1.4
			s0.3-1.1,0.8-1.5c0.5-0.3,1.1-0.5,1.8-0.5c0.7,0,1.5,0.2,2.3,0.5l-0.3,1.7c-0.7-0.5-1.6-0.6-2-0.6C69.1,6.9,69,7,69,7.1
			c0,0.2,0.4,0.2,1.1,0.5c0.8,0.3,1.3,0.7,1.3,1.4c0,0.5-0.3,1.1-0.7,1.4c-0.5,0.4-1.1,0.6-1.8,0.6c-0.8,0-1.7-0.2-2.5-0.6L66.5,8.6
			z"/>
	</g>
	<g id="Mouth">
		<path class="st2" d="M36.6,16c-0.1,0-1.3,0.1-1.9-1.1c-0.2-0.3-0.5-0.4-0.8-0.2s-0.4,0.5-0.2,0.8c0.1,0.2,0.3,0.4,0.4,0.6
			c-1.9,0.9-3.7,1.7-5.5,2.3c-2,0.7-4,1.1-6.1,1.2c-2,0.1-4.1-0.1-6.1-0.7c-2-0.5-4.1-1.4-6.1-2.4h-0.1c-0.2-0.1-0.4-0.1-0.6,0
			c-0.3,0.2-0.4,0.6-0.2,0.8c0.7,1.1,1.5,2,2.5,2.8s2,1.5,3.2,2.1c2.3,1.1,5,1.7,7.6,1.6s5.2-0.9,7.4-2.2c2.1-1.2,3.9-2.8,5.3-4.7
			c0.4,0.2,0.9,0.2,1.1,0.2c0.2,0,0.3,0,0.3,0c0.3,0,0.6-0.3,0.5-0.7C37.2,16.2,36.9,16,36.6,16z"/>
		<path class="st2" d="M7.8,17.8L7.8,17.8c-0.4-0.1-0.6-0.4-0.6-0.7c0-0.1,0.4-2.1,2.6-2.4c0.3-0.1,0.6,0.2,0.7,0.5
			c0.1,0.3-0.2,0.6-0.5,0.7c-1.3,0.2-1.6,1.5-1.6,1.5C8.4,17.6,8.1,17.8,7.8,17.8z"/>
		<path class="st0" d="M15.5,20.3c1.1,0.4,2.2,0.6,3.3,0.8c1.1,0.2,2.3,0.3,3.4,0.2c1.1,0,2.3-0.2,3.4-0.4c1.1-0.2,2.2-0.6,3.3-1
			l0,0c0.1,0,0.2,0,0.3,0.1c0,0.1,0,0.2-0.1,0.3c-0.3,0.2-0.5,0.3-0.8,0.5c-0.3,0.1-0.5,0.3-0.8,0.4c-0.6,0.2-1.1,0.5-1.7,0.6
			c-1.2,0.4-2.4,0.5-3.6,0.6c-1.2,0-2.4-0.1-3.6-0.4s-2.3-0.7-3.4-1.4c-0.1-0.1-0.1-0.2-0.1-0.3C15.3,20.3,15.4,20.3,15.5,20.3
			L15.5,20.3z"/>
	</g>
</g>
</svg>
